<svg width="58" height="37" viewBox="0 0 58 37" fill="none" xmlns="http://www.w3.org/2000/svg">
<path d="M54.72 0H3C1.34315 0 0 1.34315 0 3V34C0 35.6569 1.34315 37 3 37H54.72C56.3769 37 57.72 35.6569 57.72 34V3C57.72 1.34315 56.3769 0 54.72 0Z" fill="white"/>
<path d="M51.0599 18.5007C51.0599 25.8367 45.114 31.7837 37.7784 31.7837C30.4435 31.7837 24.4969 25.837 24.4969 18.5007C24.4969 11.1643 30.4435 5.217 37.7784 5.217C45.1143 5.217 51.0599 11.1642 51.0599 18.5007Z" fill="#D9222A"/>
<path d="M27.5184 26.9353C27.1505 26.4892 26.8125 26.0193 26.5065 25.5286H31.2137C31.497 25.0755 31.7526 24.6057 31.9791 24.1217H25.7415C25.5273 23.6641 25.3396 23.1947 25.1793 22.7157H32.5406C32.9836 21.3908 33.2235 19.974 33.2235 18.5004C33.2235 17.535 33.1205 16.594 32.9253 15.6875H24.7957C24.8981 15.2119 25.0268 14.7423 25.1811 14.2808H32.5397C32.379 13.8019 32.1915 13.3324 31.9779 12.8746H25.7431C25.9698 12.3908 26.2253 11.9211 26.5081 11.468H31.2123C30.9056 10.9782 30.5678 10.5088 30.2007 10.0626H27.52C27.9322 9.5621 28.3801 9.0922 28.8603 8.65656C26.5031 6.51922 23.3741 5.21682 19.9418 5.21682C12.6062 5.21689 6.65953 11.1641 6.65953 18.5006C6.65953 25.8366 12.606 31.7836 19.9418 31.7836C23.3745 31.7836 26.5032 30.4815 28.8603 28.3444C29.3413 27.9081 29.7898 27.4372 30.2022 26.9357H27.5184" fill="#0097D0"/>
<path d="M46.4831 21.3771C46.4832 21.1404 46.6752 20.9484 46.912 20.9483C47.1491 20.9483 47.3409 21.1407 47.3409 21.3771C47.3414 21.614 47.1497 21.8064 46.9128 21.8068C46.6759 21.8073 46.4835 21.6156 46.4831 21.3787V21.3771ZM46.912 21.7037C47.0922 21.7035 47.2381 21.5573 47.2382 21.3771C47.238 21.197 47.092 21.0512 46.912 21.0512C46.7319 21.0512 46.5859 21.1971 46.5858 21.3771C46.5859 21.5573 46.7318 21.7035 46.912 21.7037ZM46.8541 21.5656H46.7661V21.1894H46.9252C46.9585 21.1894 46.9924 21.1894 47.0217 21.2079C47.052 21.2286 47.0695 21.2647 47.0695 21.3019C47.0695 21.3449 47.0446 21.3845 47.0042 21.3994L47.0732 21.5656H46.9758L46.9188 21.4169H46.8541V21.5656ZM46.8541 21.3519H46.9028C46.9207 21.3519 46.94 21.3531 46.9564 21.3448C46.9705 21.3348 46.9787 21.3185 46.9783 21.3012C46.9779 21.2859 46.9701 21.2719 46.9573 21.2633C46.9416 21.2537 46.9173 21.2562 46.9009 21.2562H46.8541V21.3519ZM29.0859 21.6741C28.5186 21.8245 27.9695 21.8982 27.3895 21.897C25.5382 21.8951 24.5741 21.0519 24.5741 19.4396C24.5741 17.5563 25.801 16.1702 27.4672 16.1702C28.8303 16.1702 29.7001 16.947 29.7001 18.164C29.7001 18.5685 29.6409 18.9609 29.4974 19.5182H26.2052C26.0881 20.3048 26.6626 20.651 27.6414 20.651C28.2279 20.651 28.758 20.5456 29.3456 20.3094L29.0859 21.6741ZM28.2007 18.407C28.2007 18.2883 28.3835 17.4425 27.4312 17.4243C26.9051 17.4243 26.5281 17.7743 26.3752 18.407H28.2007ZM30.2015 18.0373C30.2015 18.7335 30.5928 19.2139 31.4835 19.5725C32.1646 19.8513 32.2715 19.9319 32.2715 20.1802C32.2715 20.5255 31.9707 20.6841 31.3031 20.6797C30.8012 20.6763 30.3435 20.6153 29.8036 20.4654L29.5641 21.7342C30.0444 21.8464 30.7183 21.8831 31.3145 21.897C33.0924 21.897 33.9134 21.3146 33.9134 20.0566C33.9134 19.3005 33.5709 18.855 32.7263 18.5238C32.0206 18.242 31.938 18.1806 31.938 17.9257C31.938 17.6259 32.2179 17.4743 32.7628 17.4743C33.0935 17.4743 33.5459 17.5051 33.9754 17.5565L34.2159 16.2803C33.7784 16.2193 33.1148 16.1706 32.731 16.1706C30.8471 16.1706 30.1956 17.0181 30.2015 18.0373ZM23.6716 21.8061H22.2903L22.3236 21.2274C21.9021 21.6831 21.3412 21.8959 20.5803 21.8959C19.6793 21.8959 19.0617 21.2797 19.0617 20.3945C19.0617 19.0474 20.1344 18.271 21.9795 18.271C22.1691 18.271 22.4099 18.2852 22.6581 18.3126C22.7093 18.1326 22.7229 18.0555 22.7229 17.9568C22.7229 17.5881 22.433 17.4527 21.6566 17.4527C20.8914 17.4559 20.3749 17.5692 19.8957 17.6978L20.1313 16.4623C20.9601 16.2514 21.5025 16.1704 22.1167 16.1704C23.5452 16.1704 24.2994 16.7303 24.2994 17.7829C24.3117 18.0642 24.2136 18.6274 24.1649 18.8747C24.1085 19.2336 23.7126 21.3145 23.6716 21.8061ZM22.4589 19.3494C22.2844 19.3314 22.2079 19.3264 22.088 19.3264C21.1467 19.3264 20.6687 19.6066 20.6687 20.1601C20.6687 20.5075 20.9021 20.725 21.2648 20.725C21.9422 20.725 22.4309 20.1586 22.4589 19.3494ZM36.8231 21.7188C36.3702 21.8427 36.0168 21.897 35.635 21.897C34.7889 21.897 34.3274 21.4644 34.3274 20.6942C34.3006 20.483 34.5075 19.5058 34.554 19.2336C34.6008 18.9604 35.3337 14.9792 35.3337 14.9792H36.9772L36.729 16.2964H37.5719L37.3428 17.641H36.4963C36.4963 17.641 36.0313 19.9742 36.0313 20.1522C36.0313 20.4352 36.2029 20.5576 36.5962 20.5576C36.7842 20.5576 36.9298 20.5407 37.0423 20.5065L36.8231 21.7188ZM44.9978 18.5836C44.9978 19.825 44.4887 20.5601 43.684 20.5601C43.0979 20.5684 42.7423 20.0772 42.7423 19.3409C42.7423 18.4683 43.2609 17.4826 44.0943 17.4826C44.7672 17.4826 44.9978 18.0163 44.9978 18.5836ZM46.7722 18.6182C46.7722 17.2433 45.8688 16.1703 44.1679 16.1703C42.2106 16.1703 40.9452 17.4747 40.9452 19.3965C40.9452 20.7714 41.6913 21.897 43.5462 21.897C45.4174 21.897 46.7723 20.8971 46.7722 18.6182ZM38.2874 16.2958C38.0786 18 37.7089 19.7276 37.4199 21.4351L37.3499 21.8067H39.0101C39.6086 18.5093 39.8093 17.5699 41.063 17.9007L41.666 16.3402C40.7917 16.0192 40.2285 16.4774 39.7192 17.1289C39.7651 16.8358 39.8518 16.553 39.8308 16.2958H38.2874ZM18.2881 21.8066H16.6352L17.6175 16.6296L15.355 21.8066H13.8481L13.5725 16.6595L12.5868 21.8066H11.0867L12.3641 15.0726H14.9482L15.0848 19.2413L16.9034 15.0726H19.5914L18.2881 21.8066" fill="white"/>
</svg>
