<svg width="59" height="37" viewBox="0 0 59 37" fill="none" xmlns="http://www.w3.org/2000/svg">
<path fill-rule="evenodd" clip-rule="evenodd" d="M0 34C0 35.6569 1.34315 37 3 37H56C57.6569 37 59 35.6569 59 34V3C59 1.34315 57.6569 0 56 0H3C1.34315 0 0 1.34315 0 3V34Z" fill="white"/>
<path fill-rule="evenodd" clip-rule="evenodd" d="M29.6071 28.0801C31.9723 30.1588 35.1526 31.4255 38.596 31.4255C46.0077 31.4255 52 25.647 52 18.4997C52 11.3783 46.008 5.57447 38.596 5.57447C35.1526 5.57447 31.9726 6.84174 29.6071 8.91988C26.8998 11.3019 25.1915 14.6982 25.1915 18.4997C25.1915 22.3021 26.8998 25.7233 29.6071 28.0801V28.0801Z" fill="#E9B040"/>
<path fill-rule="evenodd" clip-rule="evenodd" d="M33.7296 17.1311C33.6764 16.6712 33.5974 16.2144 33.4931 15.7627H25.2931C25.4 15.3002 25.5316 14.8434 25.6874 14.394H33.099C32.9379 13.9295 32.7537 13.4728 32.5471 13.0253H26.2391C26.4817 12.5585 26.7447 12.1019 27.0276 11.6567H31.7583C31.4646 11.1689 31.1214 10.7106 30.7336 10.2883H28.0525C28.4469 9.8066 28.9199 9.35047 29.3929 8.91988C27.0276 6.84147 23.8734 5.57447 20.4041 5.57447C12.9925 5.57447 7 11.3783 7 18.4997C7 25.6467 12.9925 31.4255 20.4041 31.4255C23.8734 31.4255 27.0273 30.1585 29.3929 28.0801C29.8657 27.6493 30.3393 27.1934 30.7596 26.7117H28.0523C27.6813 26.2767 27.339 25.8196 27.0273 25.3433H31.7583C32.0521 24.9042 32.3156 24.4469 32.5471 23.9744H26.2391C26.0236 23.5307 25.8392 23.0735 25.6871 22.606H33.0987C33.2543 22.1565 33.386 21.6996 33.4931 21.2371C33.5983 20.7812 33.6766 20.3245 33.7296 19.8687C33.8348 18.9589 33.8348 18.0408 33.7296 17.1311V17.1311Z" fill="#CC2131"/>
<path fill-rule="evenodd" clip-rule="evenodd" d="M38.56 15.4738L38.3179 16.8742C37.7809 16.6242 37.4055 16.5241 37.0027 16.5241C35.8754 16.5241 35.0972 17.5246 35.0972 18.9499C35.0972 19.9255 35.6342 20.5252 36.4925 20.5252C36.8685 20.5252 37.2713 20.4257 37.7544 20.2001L37.4864 21.6759C36.9494 21.8009 36.6007 21.8511 36.1711 21.8511C34.587 21.8511 33.5939 20.8004 33.5939 19.0749C33.5939 16.7492 34.9627 15.1489 36.9223 15.1489C37.1909 15.1489 37.4057 15.1739 37.5937 15.1988L38.2108 15.3488C38.3988 15.4236 38.4256 15.4236 38.56 15.4738V15.4738ZM33.8087 16.449C33.7549 16.4241 33.7013 16.4241 33.6475 16.4241C33.1647 16.4241 32.8957 16.6491 32.4397 17.2743L32.5738 16.474H31.2051L30.3188 21.7507H31.7956C32.3326 18.5248 32.4664 17.9744 33.1914 17.9744H33.2988C33.433 17.3492 33.5942 16.8742 33.8626 16.4488H33.8087V16.449ZM25.2451 21.6756C24.8423 21.8006 24.5204 21.8508 24.1712 21.8508C23.4194 21.8508 22.9901 21.4506 22.9901 20.7001C22.9901 20.5504 23.0169 20.4 23.0437 20.2254L23.124 19.6999L23.2046 19.2997L23.849 15.6988H25.3254L25.1645 16.474H25.9162L25.7015 17.7743H24.95L24.5472 19.9502C24.5472 20.0502 24.5204 20.1253 24.5204 20.1752C24.5204 20.4504 24.6813 20.5754 25.0306 20.5754C25.2186 20.5754 25.326 20.5504 25.4334 20.5252L25.2451 21.6756ZM19.5273 18.1496C19.5273 18.7995 19.8762 19.2748 20.6548 19.5999C21.2721 19.8751 21.3527 19.9502 21.3527 20.2001C21.3527 20.5252 21.0843 20.6754 20.4935 20.6754C20.064 20.6754 19.6614 20.6003 19.178 20.4504L18.9632 21.6756H19.0439L19.3125 21.7258C19.4343 21.7602 19.561 21.7771 19.6882 21.7757C20.0372 21.8006 20.3326 21.8256 20.5203 21.8256C22.0774 21.8256 22.8021 21.2757 22.8021 20.0751C22.8021 19.3501 22.507 18.925 21.7552 18.5994C21.1376 18.3497 21.0573 18.2746 21.0573 18.0495C21.0573 17.7494 21.2989 17.5994 21.782 17.5994C22.0774 17.5994 22.4799 17.6493 22.8556 17.6995L23.0704 16.474C22.6947 16.4241 22.1039 16.3739 21.7552 16.3739C20.091 16.3739 19.5273 17.1743 19.5273 18.1496V18.1496ZM49.9153 21.7507H48.4927L48.5728 21.2256C48.17 21.6258 47.7404 21.8004 47.2034 21.8004C46.13 21.8004 45.4053 20.9504 45.4053 19.6251C45.4053 17.8744 46.5058 16.3989 47.821 16.3989C48.4118 16.3989 48.8414 16.6239 49.2436 17.1241L49.5658 15.2734H51.0425L49.9153 21.7507ZM47.7136 20.5C48.4118 20.5 48.8947 19.775 48.8947 18.7249C48.8947 18.0745 48.6266 17.6995 48.1164 17.6995C47.4455 17.6995 46.9618 18.4245 46.9618 19.4749C46.9618 20.1503 47.2034 20.5 47.7136 20.5ZM29.7816 21.6258C29.2717 21.7754 28.7885 21.8508 28.2516 21.8508C26.5871 21.8508 25.7282 21.0252 25.7282 19.4998C25.7282 17.6745 26.829 16.349 28.3322 16.349C29.5403 16.349 30.3186 17.0992 30.3186 18.2746C30.3186 18.6498 30.265 19.025 30.1579 19.5749H27.205C27.1779 19.65 27.1779 19.675 27.1779 19.7251C27.1779 20.3254 27.6075 20.6502 28.4934 20.6502C29.0036 20.6502 29.4867 20.5502 30.0237 20.3251L29.7816 21.6258V21.6258ZM28.9498 18.4993V18.2244C28.9498 17.7993 28.7079 17.5493 28.2519 17.5493C27.7958 17.5493 27.4465 17.8993 27.3124 18.4993H28.9498ZM13.8901 21.7507H12.4136L13.2725 16.7741L11.3664 21.7507H10.3466L10.2392 16.7991L9.32651 21.7507H7.95744L9.11172 15.2734H11.2323L11.3129 19.2748L12.7358 15.2734H15.0443L13.8901 21.7507ZM17.5677 19.3998C17.4064 19.3748 17.3261 19.3748 17.2187 19.3748C16.3866 19.3748 15.957 19.65 15.957 20.1752C15.957 20.5003 16.1715 20.7256 16.4937 20.7256C17.1113 20.7256 17.5409 20.1752 17.5677 19.3998V19.3998ZM18.6413 21.7507H17.4064L17.4335 21.2004C17.0578 21.626 16.5743 21.8253 15.8764 21.8253C15.0711 21.8253 14.5341 21.2505 14.5341 20.4C14.5341 19.1248 15.4739 18.3743 17.1381 18.3743C17.299 18.3743 17.5138 18.3743 17.7286 18.3993C17.7822 18.2493 17.7822 18.1745 17.7822 18.0745C17.7822 17.7244 17.5406 17.5992 16.8427 17.5992C16.4131 17.5992 15.93 17.6491 15.6078 17.7491L15.393 17.799L15.2588 17.8239L15.4736 16.6486C16.2251 16.4485 16.7082 16.3734 17.2452 16.3734C18.5337 16.3734 19.2048 16.8986 19.2048 17.899C19.2048 18.1742 19.1777 18.3741 19.0703 18.9494L18.7752 20.8251L18.7217 21.1502L18.6946 21.4249L18.6678 21.6L18.6413 21.7507V21.7507ZM40.976 19.3998C40.8153 19.3748 40.7344 19.3748 40.627 19.3748C39.7946 19.3748 39.365 19.65 39.365 20.1752C39.365 20.5003 39.5798 20.7256 39.902 20.7256C40.4925 20.7256 40.9492 20.1752 40.976 19.3998V19.3998ZM42.0496 21.7507H40.815L40.8418 21.2004C40.4658 21.626 39.9561 21.8253 39.2844 21.8253C38.4794 21.8253 37.9156 21.2505 37.9156 20.4C37.9156 19.1248 38.8822 18.3743 40.5461 18.3743C40.7068 18.3743 40.9221 18.3743 41.1363 18.3993C41.1902 18.2493 41.1902 18.1745 41.1902 18.0745C41.1902 17.7244 40.9486 17.5992 40.2504 17.5992C39.8208 17.5992 39.338 17.6491 39.0158 17.7491L38.801 17.799L38.6668 17.8239L38.8816 16.6486C39.6328 16.4485 40.1162 16.3734 40.6532 16.3734C41.9417 16.3734 42.6128 16.8986 42.6128 17.899C42.6128 18.1742 42.586 18.3741 42.4786 18.9494L42.1832 20.8251L42.1297 21.1502L42.0758 21.4249L42.049 21.6V21.7507H42.0496V21.7507ZM46.0229 16.449C45.9956 16.4241 45.9423 16.4241 45.8882 16.4241C45.4053 16.4241 45.1099 16.6491 44.6536 17.2743L44.7878 16.474H43.4457L42.5328 21.7507H44.036C44.5462 18.5248 44.7074 17.9744 45.4053 17.9744H45.5127C45.6469 17.3492 45.8349 16.8742 46.0765 16.4488H46.0229V16.449V16.449Z" fill="white"/>
</svg>
