<svg width="80" height="80" viewBox="0 0 80 80" fill="none" xmlns="http://www.w3.org/2000/svg">
<circle opacity="0.15" cx="40" cy="40" r="40" fill="#FF9900"/>
<g clip-path="url(#clip0_1_7)">
<path d="M30.6667 30.1387V42.3853C30.6667 43.2633 30.8834 44.1276 31.2977 44.9017C31.7119 45.6758 32.3109 46.3356 33.0413 46.8227L40 51.4627L46.9587 46.8227C47.6889 46.3357 48.2878 45.6761 48.702 44.9023C49.1162 44.1285 49.3331 43.2644 49.3333 42.3867V30.1387L40 28.0667L30.6667 30.1387ZM29.044 27.768L40 25.3333L50.956 27.768C51.2521 27.8338 51.5169 27.9986 51.7067 28.2352C51.8965 28.4718 51.9999 28.766 52 29.0693V42.3853C51.9999 43.7023 51.6747 44.9989 51.0532 46.16C50.4317 47.3211 49.5332 48.3108 48.4373 49.0413L40 54.6667L31.5627 49.0413C30.467 48.311 29.5686 47.3215 28.9471 46.1606C28.3256 44.9997 28.0003 43.7034 28 42.3867V29.0693C28.0001 28.766 28.1035 28.4718 28.2933 28.2352C28.4831 27.9986 28.7479 27.8338 29.044 27.768V27.768ZM40 42L36.0813 44.06L36.8293 39.6973L33.66 36.6067L38.0413 35.9693L40 32L41.96 35.9693L46.34 36.6067L43.1707 39.6973L43.9173 44.06L40 42Z" fill="#FF9900"/>
</g>
<defs>
<clipPath id="clip0_1_7">
<rect width="32" height="32" fill="white" transform="translate(24 24)"/>
</clipPath>
</defs>
</svg>
