<svg width="80" height="80" viewBox="0 0 80 80" fill="none" xmlns="http://www.w3.org/2000/svg">
<circle opacity="0.15" cx="40" cy="40" r="40" fill="#FF9900"/>
<g clip-path="url(#clip0_1_2)">
<path d="M30.6667 36C31.0203 36 31.3594 36.1405 31.6095 36.3905C31.8595 36.6406 32 36.9797 32 37.3333C34.0949 37.3302 36.1293 38.035 37.7733 39.3333H40.6667C42.444 39.3333 44.04 40.1067 45.1387 41.3333H49.3333C50.5937 41.333 51.8283 41.6899 52.894 42.3627C53.9598 43.0355 54.813 43.9967 55.3547 45.1347C52.2013 49.296 47.096 52 41.3333 52C37.6133 52 34.4667 51.196 31.92 49.7893C31.8267 50.0467 31.6563 50.2691 31.432 50.4261C31.2077 50.5831 30.9405 50.6671 30.6667 50.6667H26.6667C26.313 50.6667 25.9739 50.5262 25.7239 50.2761C25.4738 50.0261 25.3333 49.687 25.3333 49.3333V37.3333C25.3333 36.9797 25.4738 36.6406 25.7239 36.3905C25.9739 36.1405 26.313 36 26.6667 36H30.6667ZM32.0013 40L32 46.696L32.06 46.7387C34.4533 48.4187 37.5707 49.3333 41.3333 49.3333C45.3387 49.3333 49.0653 47.792 51.78 45.16L51.9573 44.9827L51.7973 44.8493C51.1677 44.3562 50.4045 44.0636 49.6067 44.0093L49.3333 44H46.5187C46.6147 44.4293 46.6667 44.8747 46.6667 45.3333V46.6667H34.6667V44L43.72 43.9987L43.6747 43.8947C43.4191 43.3607 43.0261 42.9044 42.5359 42.5726C42.0457 42.2408 41.476 42.0455 40.8853 42.0067L40.6667 42H36.76C36.1404 41.3663 35.4004 40.8629 34.5834 40.5194C33.7664 40.176 32.8889 39.9994 32.0027 40H32.0013ZM29.3333 38.6667H28V48H29.3333V38.6667ZM48 30.6667C49.0609 30.6667 50.0783 31.0881 50.8284 31.8382C51.5786 32.5884 52 33.6058 52 34.6667C52 35.7275 51.5786 36.7449 50.8284 37.4951C50.0783 38.2452 49.0609 38.6667 48 38.6667C46.9391 38.6667 45.9217 38.2452 45.1716 37.4951C44.4214 36.7449 44 35.7275 44 34.6667C44 33.6058 44.4214 32.5884 45.1716 31.8382C45.9217 31.0881 46.9391 30.6667 48 30.6667ZM48 33.3333C47.6464 33.3333 47.3072 33.4738 47.0572 33.7239C46.8071 33.9739 46.6667 34.313 46.6667 34.6667C46.6667 35.0203 46.8071 35.3594 47.0572 35.6095C47.3072 35.8595 47.6464 36 48 36C48.3536 36 48.6928 35.8595 48.9428 35.6095C49.1929 35.3594 49.3333 35.0203 49.3333 34.6667C49.3333 34.313 49.1929 33.9739 48.9428 33.7239C48.6928 33.4738 48.3536 33.3333 48 33.3333ZM38.6667 26.6667C39.7275 26.6667 40.7449 27.0881 41.4951 27.8382C42.2452 28.5884 42.6667 29.6058 42.6667 30.6667C42.6667 31.7275 42.2452 32.7449 41.4951 33.4951C40.7449 34.2452 39.7275 34.6667 38.6667 34.6667C37.6058 34.6667 36.5884 34.2452 35.8382 33.4951C35.0881 32.7449 34.6667 31.7275 34.6667 30.6667C34.6667 29.6058 35.0881 28.5884 35.8382 27.8382C36.5884 27.0881 37.6058 26.6667 38.6667 26.6667ZM38.6667 29.3333C38.313 29.3333 37.9739 29.4738 37.7239 29.7239C37.4738 29.9739 37.3333 30.313 37.3333 30.6667C37.3333 31.0203 37.4738 31.3594 37.7239 31.6095C37.9739 31.8595 38.313 32 38.6667 32C39.0203 32 39.3594 31.8595 39.6095 31.6095C39.8595 31.3594 40 31.0203 40 30.6667C40 30.313 39.8595 29.9739 39.6095 29.7239C39.3594 29.4738 39.0203 29.3333 38.6667 29.3333Z" fill="#FF9900"/>
</g>
<defs>
<clipPath id="clip0_1_2">
<rect width="32" height="32" fill="white" transform="translate(24 24)"/>
</clipPath>
</defs>
</svg>
